HIERARCHY
ROOT Hips
{
    OFFSET 0.000000 0.000000 0.000000
    CHANNELS 6 Xposition Yposition Zposition Zrotation Xrotation Yrotation
    JOINT Spine
    {
        OFFSET -0.000000 14.517291 0.000000
        CHANNELS 3 Zrotation Xrotation Yrotation
        JOINT Spine1
        {
            OFFSET -0.000000 37.558300 0.000000
            CHANNELS 3 Zrotation Xrotation Yrotation
            JOINT Neck
            {
                OFFSET -0.000000 37.404057 3.400369
                CHANNELS 3 Zrotation Xrotation Yrotation
                JOINT Head
                {
                    OFFSET -0.000000 24.785618 -3.540803
                    CHANNELS 3 Zrotation Xrotation Yrotation
                    End Site
                    {
                        OFFSET -0.000000 35.408028 0.000000
                    }
                }
            }
            JOINT LeftShoulder
            {
                OFFSET 6.992933 33.973492 -0.192664
                CHANNELS 3 Zrotation Xrotation Yrotation
                JOINT LeftArm
                {
                    OFFSET 21.527611 0.000000 0.000000
                    CHANNELS 3 Zrotation Xrotation Yrotation
                    JOINT LeftForeArm
                    {
                        OFFSET 56.353916 0.000000 0.000000
                        CHANNELS 3 Zrotation Xrotation Yrotation
                        JOINT LeftHand
                        {
                            OFFSET 47.774071 0.000000 0.000000
                            CHANNELS 3 Zrotation Xrotation Yrotation
                            End Site
                            {
                                OFFSET 26.556021 0.000000 0.000000
                            }
                        }
                    }
                }
            }
            JOINT RightShoulder
            {
                OFFSET -7.065357 33.973492 -0.192664
                CHANNELS 3 Zrotation Xrotation Yrotation
                JOINT RightArm
                {
                    OFFSET -21.527611 0.000000 0.000000
                    CHANNELS 3 Zrotation Xrotation Yrotation
                    JOINT RightForeArm
                    {
                        OFFSET -56.353916 0.000000 0.000000
                        CHANNELS 3 Zrotation Xrotation Yrotation
                        JOINT RightHand
                        {
                            OFFSET -47.774071 0.000000 0.000000
                            CHANNELS 3 Zrotation Xrotation Yrotation
                            End Site
                            {
                                OFFSET -26.556021 0.000000 0.000000
                            }
                        }
                    }
                }
            }
        }
    }
    JOINT LeftUpLeg
    {
        OFFSET 17.704014 0.000000 0.000000
        CHANNELS 3 Zrotation Xrotation Yrotation
        JOINT LeftLeg
        {
            OFFSET -0.000000 -81.181816 0.000000
            CHANNELS 3 Zrotation Xrotation Yrotation
            JOINT LeftFoot
            {
                OFFSET -0.000000 -62.821102 0.000000
                CHANNELS 3 Zrotation Xrotation Yrotation
                JOINT LeftToeBase
                {
                    OFFSET -0.000000 -11.507608 26.556021
                    CHANNELS 3 Zrotation Xrotation Yrotation
                    End Site
                    {
                        OFFSET -0.000000 0.000000 7.081605
                    }
                }
            }
        }
    }
    JOINT RightUpLeg
    {
        OFFSET -17.704014 0.000000 0.000000
        CHANNELS 3 Zrotation Xrotation Yrotation
        JOINT RightLeg
        {
            OFFSET -0.000000 -81.181816 0.000000
            CHANNELS 3 Zrotation Xrotation Yrotation
            JOINT RightFoot
            {
                OFFSET -0.000000 -62.821102 0.000000
                CHANNELS 3 Zrotation Xrotation Yrotation
                JOINT RightToeBase
                {
                    OFFSET -0.000000 -11.507608 26.556021
                    CHANNELS 3 Zrotation Xrotation Yrotation
                    End Site
                    {
                        OFFSET -0.000000 0.000000 7.081605
                    }
                }
            }
        }
    }
}
MOTION
Frames:    9
Frame Time:    0.008333
-38.587082    158.859604    -43.675774    -3.562029    0.779909    38.700474    1.248087    1.041386    -1.685106    -0.073461    0.185505    -0.557764    2.533031    5.545343    -16.314791    11.673016    -6.777066    -14.940590    2.232788    9.650149    -15.601520    -30.940647    23.992760    -47.156639    -4.666148    -26.167856    -117.474503    -9.357980    -31.879381    -14.180224    -0.094463    10.499486    -3.271460    26.955446    13.297752    47.746922    -7.627353    9.277332    43.000584    -25.807585    3.381922    37.555836    10.963919    -5.016988    -1.496569    -25.602833    52.653954    -18.606176    -5.525288    -21.747131    37.860756    0.000000    0.000000    0.000000    3.181258    -22.767996    -4.302944    10.718363    25.642763    -9.630155    -8.631860    -4.850650    -15.003795    0.000000    0.000000    0.000000    
-38.229362    159.063110    -43.532944    -3.424554    0.892177    38.574017    1.195993    1.037669    -1.601935    -0.180005    0.225893    -0.529946    2.552218    5.527113    -16.276560    11.587896    -6.720647    -14.925188    2.213424    9.619143    -15.586728    -30.942308    23.906013    -47.084759    -4.718503    -26.157085    -117.476379    -9.331637    -31.947355    -14.156445    -0.107466    10.457565    -3.182467    26.838102    13.435841    47.734196    -7.749150    9.134974    43.007050    -25.718472    3.334102    37.495399    11.439667    -5.358642    -1.504124    -25.300900    52.799133    -18.554018    -5.118828    -21.610617    37.819832    0.000000    0.000000    0.000000    3.126101    -22.519215    -4.362173    10.318419    25.382969    -9.374815    -8.493499    -4.805609    -14.934292    0.000000    0.000000    0.000000    
-37.869377    159.257675    -43.417294    -3.282693    0.990158    38.510021    1.183043    1.091549    -1.566676    -0.271404    0.195448    -0.517929    2.412900    5.499416    -16.244337    11.624250    -6.590051    -14.883996    2.121227    9.604929    -15.528243    -30.947531    23.852112    -47.013638    -4.758065    -26.153482    -117.491325    -9.289502    -32.007969    -14.128611    -0.194213    10.634302    -3.153438    26.866955    13.171918    47.906269    -7.631866    9.298497    42.947861    -25.747908    3.389820    37.683426    11.902099    -5.696169    -1.561483    -24.920441    52.805244    -18.369816    -5.139790    -21.814178    37.875542    0.000000    0.000000    0.000000    2.941556    -22.272463    -4.236705    10.288094    25.120491    -9.313848    -8.483807    -4.745208    -15.058499    0.000000    0.000000    0.000000    
-37.504993    159.446075    -43.309639    -3.141663    1.099204    38.441719    1.155257    1.113356    -1.511234    -0.396667    0.186804    -0.499293    2.366873    5.535959    -16.223228    11.635321    -6.572440    -14.856087    2.114904    9.591524    -15.487822    -30.966583    23.871704    -46.987705    -4.734622    -26.266687    -117.459160    -9.318188    -32.071789    -14.168832    -0.234487    10.609735    -3.104693    26.737888    13.334577    47.920593    -7.778574    9.140890    42.989712    -25.658400    3.343988    37.604813    12.345661    -6.047759    -1.644831    -24.336533    52.790573    -18.462030    -5.060439    -21.788452    37.759056    0.000000    0.000000    0.000000    2.752518    -22.055878    -4.180829    10.208781    24.914907    -9.240322    -8.441251    -4.713531    -15.117956    0.000000    0.000000    0.000000    
-37.150295    159.623428    -43.226719    -3.005626    1.220760    38.398148    1.102084    1.162205    -1.489939    -0.429371    0.096669    -0.492445    2.270510    5.591140    -16.187145    11.548145    -6.551979    -14.826549    1.982689    9.608214    -15.445989    -31.054928    23.772936    -46.840900    -4.813284    -26.137009    -117.494797    -9.225016    -32.078621    -14.107594    -0.366482    10.673318    -3.046736    26.761190    13.235868    47.996616    -7.697001    9.252208    42.980511    -25.725386    3.348341    37.804447    12.780847    -6.422011    -1.786262    -23.722227    52.735100    -18.602198    -4.987524    -21.726263    37.648876    0.000000    0.000000    0.000000    2.536849    -21.882690    -4.152874    10.143389    24.743536    -9.214298    -8.379105    -4.684668    -15.127074    0.000000    0.000000    0.000000    
-36.784981    159.793671    -43.155582    -2.855265    1.345505    38.333599    1.095511    1.210537    -1.447683    -0.586966    0.051004    -0.478318    2.194402    5.560539    -16.162537    11.544174    -6.478649    -14.801852    1.936029    9.586738    -15.354528    -31.116564    23.776152    -46.774952    -4.838131    -26.133596    -117.535202    -9.233189    -32.115536    -14.097394    -0.464174    10.590494    -3.072225    26.749376    13.370995    48.102673    -7.757427    9.256656    42.975395    -25.733315    3.343303    37.922092    13.190721    -6.770001    -1.939462    -22.950491    52.638557    -18.944077    -4.977738    -21.616043    37.554962    0.000000    0.000000    0.000000    2.368319    -21.728003    -4.361867    9.813765    24.644215    -9.041442    -8.220930    -4.681068    -14.958344    0.000000    0.000000    0.000000    
-36.434227    159.956818    -43.111622    -2.721879    1.485572    38.282295    1.121910    1.233869    -1.391006    -0.808164    -0.001308    -0.459626    2.150590    5.578988    -16.156088    11.542600    -6.459472    -14.792576    1.907014    9.581127    -15.325759    -31.141693    23.815910    -46.683880    -4.840041    -26.225348    -117.577583    -9.208670    -32.215576    -14.061437    -0.464640    10.547780    -3.036766    26.728943    13.383499    48.085350    -7.785349    9.296528    43.039330    -25.760208    3.349962    38.077774    13.609842    -7.165666    -2.240086    -22.255247    52.543121    -19.437809    -5.039546    -21.587477    37.617210    0.000000    0.000000    0.000000    2.111043    -21.627514    -4.337297    9.797554    24.570488    -9.048223    -8.128228    -4.671946    -15.107463    0.000000    0.000000    0.000000    
-36.084610    160.107849    -43.079735    -2.564547    1.622668    38.237259    1.071903    1.279196    -1.342191    -0.896023    -0.038726    -0.443660    2.052049    5.531390    -16.148716    11.488893    -6.419630    -14.790284    1.798343    9.577629    -15.255320    -31.238039    23.721996    -46.581295    -4.896313    -26.094360    -117.634155    -9.176407    -32.186405    -14.004235    -0.567385    10.533036    -3.030755    26.766729    13.253195    48.148121    -7.667105    9.423554    43.110809    -25.776878    3.396816    38.211342    14.001115    -7.534297    -2.615683    -21.482412    52.384956    -19.973822    -5.075223    -21.438995    37.611923    0.000000    0.000000    0.000000    1.820802    -21.539082    -4.347727    9.779860    24.553381    -9.035787    -8.024055    -4.682784    -15.112045    0.000000    0.000000    0.000000    
-35.717609    160.243042    -43.055515    -2.394753    1.743371    38.193581    1.080154    1.366305    -1.309520    -1.092641    -0.124581    -0.433341    1.991293    5.543129    -16.137142    11.467667    -6.430091    -14.774971    1.761183    9.574469    -15.168458    -31.372185    23.701675    -46.476486    -4.915439    -26.029730    -117.700577    -9.126312    -32.171074    -13.940821    -0.625195    10.542974    -3.000893    26.719259    13.271164    48.191486    -7.690164    9.354250    43.268940    -25.766432    3.344258    38.241081    14.382787    -7.864494    -3.103834    -20.545996    52.131714    -21.007942    -5.325126    -21.360615    37.806076    0.000000    0.000000    0.000000    1.504329    -21.444010    -4.388364    9.801839    24.571011    -9.008764    -7.942610    -4.721384    -15.134425    0.000000    0.000000    0.000000    
